<svg width="24" height="25" viewBox="0 0 24 25" fill="none" xmlns="http://www.w3.org/2000/svg">
<g clip-path="url(#clip0_15_35309)">
<path d="M22.2234 0.851074H1.77187C0.792187 0.851074 0 1.62451 0 2.58076V23.1167C0 24.0729 0.792187 24.8511 1.77187 24.8511H22.2234C23.2031 24.8511 24 24.073 24 23.1214V2.58076C24 1.62451 23.2031 0.851074 22.2234 0.851074ZM7.12031 21.3026H3.55781V9.84639H7.12031V21.3026ZM5.33906 8.28545C4.19531 8.28545 3.27188 7.36201 3.27188 6.22295C3.27188 5.08389 4.19531 4.16045 5.33906 4.16045C6.47813 4.16045 7.40156 5.08389 7.40156 6.22295C7.40156 7.35732 6.47813 8.28545 5.33906 8.28545ZM20.4516 21.3026H16.8937V15.7339C16.8937 14.4073 16.8703 12.6964 15.0422 12.6964C13.1906 12.6964 12.9094 14.1448 12.9094 15.6401V21.3026H9.35625V9.84639H12.7687V11.412H12.8156C13.2891 10.512 14.4516 9.56045 16.1813 9.56045C19.7859 9.56045 20.4516 11.9323 20.4516 15.0167V21.3026Z" fill="#EDEDED"/>
</g>
<defs>
<clipPath id="clip0_15_35309">
<rect width="24" height="24" fill="white" transform="translate(0 0.851074)"/>
</clipPath>
</defs>
</svg>
